<?xml version="1.0" encoding="utf-8"?>
<!-- Generator: Adobe Illustrator 24.1.0, SVG Export Plug-In . SVG Version: 6.00 Build 0)  -->
<svg version="1.1" id="Layer_1" xmlns="http://www.w3.org/2000/svg" xmlns:xlink="http://www.w3.org/1999/xlink" x="0px" y="0px"
	 viewBox="0 0 170.2 34.7" style="enable-background:new 0 0 170.2 34.7;" xml:space="preserve">
<style type="text/css">
	.st0{clip-path:url(#SVGID_2_);fill:url(#SVGID_3_);}
	.st1{clip-path:url(#SVGID_5_);fill:url(#SVGID_6_);}
	.st2{fill-rule:evenodd;clip-rule:evenodd;fill:#FFFFFF;}
</style>
<path class="st2" d="M92.8,22.2c-2.1,0-3.9-1.7-3.9-3.9c0-2.1,1.7-3.9,3.9-3.9c2.1,0,3.9,1.7,3.9,3.9C96.7,20.5,94.9,22.2,92.8,22.2
	 M92.8,23.7c-3,0-5.4-2.4-5.4-5.4c0-3,2.4-5.4,5.4-5.4c3,0,5.4,2.4,5.4,5.4C98.2,21.3,95.8,23.7,92.8,23.7z M89.5,33.4
	c1.3,0,2.3-0.2,2.9-0.6c0.6-0.4,1-1,1-1.7v-3.1c0-0.6-0.5-1-1-1c-0.6,0-1,0.5-1,1v3.1c0,0.2-0.1,0.4-0.5,0.5
	c-0.3,0.1-0.8,0.2-1.4,0.2h-4.8c-0.6,0-1.1-0.1-1.4-0.2c-0.3-0.1-0.5-0.3-0.5-0.6v-6.2c0-0.2,0.2-0.4,0.5-0.6
	c0.3-0.1,0.8-0.2,1.4-0.2h4.8c-0.7-0.4-1.4-1-1.9-1.6h-2.9c-1.3,0-2.3,0.2-2.9,0.6c-0.6,0.4-1,1-1,1.8V31c0,0.8,0.3,1.4,1,1.8
	c0.6,0.4,1.6,0.6,2.9,0.6H89.5z M63.3,22.3c0.6,0,1,0.5,1,1v8.5h8.8v0c0.4,0,0.8,0.4,0.8,0.8c0,0.4-0.4,0.8-0.8,0.8v0H62.2V23.3
	C62.2,22.8,62.7,22.3,63.3,22.3z M151.2,33.4c1.3,0,2.3-0.2,2.9-0.6c0.6-0.4,1-1,1-1.7v-3.1c0-0.6-0.5-1-1-1c-0.6,0-1,0.5-1,1v3.1
	c0,0.2-0.1,0.4-0.5,0.5c-0.3,0.1-0.8,0.2-1.4,0.2h-4.8c-0.6,0-1.1-0.1-1.4-0.2c-0.3-0.1-0.5-0.3-0.5-0.6v-6.2c0-0.2,0.2-0.4,0.5-0.6
	c0.3-0.1,0.8-0.2,1.4-0.2h7.8v0c0.4,0,0.8-0.4,0.8-0.8c0-0.4-0.4-0.8-0.8-0.8v0h-7.8c-1.3,0-2.3,0.2-2.9,0.6c-0.6,0.4-1,1-1,1.8V31
	c0,0.8,0.3,1.4,1,1.8c0.6,0.4,1.6,0.6,2.9,0.6H151.2z M140.4,32.4l0-9.1c0-0.2-0.2-0.8-0.9-0.8c-0.7,0-0.9,0.5-0.9,0.8v7.3L128,22.6
	c-0.7-0.4-1.9,0-1.9,1v9c0,0.2,0.2,0.8,0.9,0.8c0.7,0,0.9-0.5,0.9-0.8v-7.6l11.2,8.1C139.6,33.6,140.5,33.3,140.4,32.4z M114.1,32.4
	v-8.2h2.8v0c0.4,0,0.8-0.4,0.8-0.8c0-0.4-0.4-0.8-0.8-0.8v0H107v0c-0.4,0-0.8,0.4-0.8,0.8c0,0.4,0.4,0.8,0.8,0.8v0h5.1v8.2
	c0,0.6,0.5,1,1,1C113.6,33.4,114.1,32.9,114.1,32.4z M108.4,32.4v-6.2c0-0.6-0.5-1-1-1c-0.6,0-1,0.5-1,1h0v0.7h-8.9v-3.5
	c0-0.1,0-0.2,0-0.3c-0.6,0.6-1.3,1-2,1.4v7.9c0,0.6,0.5,1,1,1c0.6,0,1-0.5,1-1v-3.9h8.9v3.9h0c0,0.6,0.5,1,1,1
	C108,33.4,108.4,32.9,108.4,32.4z M78.1,32.4v-9c0-0.6-0.5-1-1-1c-0.6,0-1,0.5-1,1h0v9h0c0,0.6,0.5,1,1,1
	C77.7,33.4,78.1,32.9,78.1,32.4z M41.6,8.8H30c-0.7,0-1.3-0.1-1.6-0.4c-0.4-0.3-0.5-0.7-0.5-1.2V6.2c0-0.5,0.2-0.9,0.5-1.2
	c0.4-0.3,0.9-0.4,1.6-0.4c4.4,0,2.9,0,7.2,0c0.9,0,1.5-0.3,1.5-1.3c0-0.8-0.6-1.2-1.5-1.3H30c-1.3,0-2.3,0.2-3.1,0.5
	c-0.8,0.3-1.4,0.8-1.7,1.5c-0.4,0.6-0.5,1.4-0.5,2.2v1c0,0.8,0.2,1.6,0.5,2.2c0.2,0.3,0.3,0.5,0.6,0.7c-0.2,0.2-0.4,0.4-0.6,0.7
	c-0.4,0.6-0.5,1.4-0.5,2.2v2.1c0,0.8,0.2,1.6,0.5,2.2c0.4,0.6,0.9,1.1,1.7,1.5c0.8,0.3,1.8,0.5,3.1,0.5h16.6
	c0.8-0.1,1.5-0.5,1.5-1.3c0-1-0.6-1.3-1.5-1.3c-4.4,0-12.3,0-16.6,0c-0.7,0-1.3-0.1-1.6-0.4c-0.4-0.3-0.5-0.7-0.5-1.2V13
	c0-0.5,0.2-0.9,0.5-1.2c0.4-0.3,0.9-0.4,1.6-0.4h11.6c0.7,0,1.3-0.6,1.3-1.3C42.9,9.4,42.3,8.8,41.6,8.8z M167.8,17.3V3.4
	c0-0.8-0.6-1.4-1.4-1.4c-0.8,0-1.4,0.6-1.4,1.4l0,0v11.4L148,2c-1.2-0.9-3-0.2-3,1.6v3.1h0c0,0.8,0.7,1.5,1.5,1.5
	c0.8,0,1.5-0.7,1.5-1.5h0V5.9l17.1,12.6C165.9,19.1,167.7,18.9,167.8,17.3z M17.7,19.3c1.3,0,2.4-0.2,3.1-0.5
	c0.8-0.3,1.4-0.8,1.7-1.5c0.4-0.6,0.5-1.4,0.5-2.2V13c0-0.8-0.2-1.6-0.5-2.2c-0.4-0.6-0.9-1.1-1.7-1.5C20,9,19,8.8,17.7,8.8H7.5
	c-0.7,0-1.3-0.1-1.6-0.4C5.5,8.1,5.4,7.7,5.4,7.2V6.2c0-0.5,0.2-0.9,0.5-1.2c0.4-0.3,0.9-0.4,1.6-0.4c4.4,0,8.7,0,13.1,0
	c0.9,0,1.5-0.3,1.5-1.3c0-0.8-0.6-1.2-1.5-1.3H7.5C6.2,2,5.2,2.2,4.4,2.6C3.6,2.9,3,3.4,2.6,4C2.3,4.6,2.1,5.4,2.1,6.2v1
	c0,0.8,0.2,1.6,0.5,2.2C3,10,3.6,10.5,4.4,10.8c0.8,0.3,1.8,0.5,3.1,0.5h10.1c0.7,0,1.3,0.1,1.6,0.4c0.4,0.3,0.5,0.7,0.5,1.2v2.2
	c0,0.5-0.2,0.9-0.5,1.2c-0.4,0.3-0.9,0.4-1.6,0.4H3.4c-0.7,0-1.3,0.6-1.3,1.3s0.6,1.3,1.3,1.3H17.7z M67.2,19.3
	c-0.7,0-1.3-0.6-1.3-1.3s0.6-1.3,1.3-1.3h11.9l-1.7,2.5H67.2z M84,9.3c-0.8-0.3-1.8-0.5-3.1-0.5H70.8c-0.7,0-1.3-0.1-1.6-0.4
	c-0.4-0.3-0.5-0.7-0.5-1.2V6.2c0-0.5,0.2-0.9,0.5-1.2c0.4-0.3,0.9-0.4,1.6-0.4h14.6v0c0.7,0,1.3-0.6,1.3-1.3c0-0.7-0.6-1.3-1.3-1.3
	H70.8c-1.3,0-2.3,0.2-3.1,0.5c-0.8,0.3-1.4,0.8-1.7,1.5c-0.4,0.6-0.5,1.4-0.5,2.2v1c0,0.8,0.2,1.6,0.5,2.2c0.4,0.6,0.9,1.1,1.7,1.5
	c0.8,0.3,1.8,0.5,3.1,0.5h10.1c0.7,0,1.2,0.1,1.5,0.3L84,9.3z M110.8,18V4.6h5.1v0c0.7,0,1.3-0.6,1.3-1.3c0-0.7-0.6-1.3-1.3-1.3
	H97.5L99,4.6h8.6V18c0,0.6,0.3,1.3,1.6,1.3C110.5,19.3,110.8,18.5,110.8,18z M123.2,31.8V3.7c0-0.9-0.7-1.6-1.6-1.6
	c-0.9,0-1.6,0.7-1.6,1.6l0,0v28l0,0c0,0.9,0.7,1.6,1.6,1.6C122.4,33.4,123.2,32.7,123.2,31.8z M142.8,19.3c1.3,0,2.4-0.2,3.1-0.5
	c0.8-0.3,1.4-0.8,1.7-1.5c0.4-0.6,0.5-1.4,0.5-2.2v-4.3c0-0.9-0.7-1.6-1.6-1.6c-0.9,0-1.6,0.7-1.6,1.6l0,0v4.3
	c0,0.5-0.2,0.9-0.5,1.2c-0.4,0.3-0.9,0.4-1.6,0.4h-11.4c-0.7,0-1.3-0.1-1.6-0.4c-0.4-0.3-0.5-0.7-0.5-1.2v-9c0-0.5,0.2-0.9,0.5-1.2
	c0.4-0.3,0.9-0.4,1.6-0.4h11.3v0c0.7,0,1.3-0.6,1.3-1.3c0-0.7-0.6-1.3-1.3-1.3h-11.3c-1.3,0-2.3,0.2-3.1,0.5
	c-0.8,0.3-1.4,0.8-1.7,1.5c-0.4,0.6-0.5,1.3-0.5,2.2v8.9c0,0.8,0.2,1.6,0.5,2.2c0.4,0.6,0.9,1.1,1.7,1.5c0.8,0.3,1.8,0.5,3.1,0.5
	H142.8z M63.1,17.3V3.4c0-0.8-0.6-1.4-1.4-1.4c-0.8,0-1.4,0.6-1.4,1.4l0,0v11.4L43.4,2c-1.2-0.9-3-0.2-3,1.6v3.1h0
	c0,0.8,0.7,1.5,1.5,1.5c0.8,0,1.5-0.7,1.5-1.5h0V5.8l17.1,12.6C61.2,19.1,63.1,18.9,63.1,17.3z M81.1,19.3L93,2l11.5,17.2l-5.1,0
	c0-0.3,0.1-0.6,0.1-1c0-3.7-3-6.7-6.7-6.7c-3.7,0-6.7,3-6.7,6.7c0,0.3,0,0.7,0.1,1L81.1,19.3z"/>
</svg>
